G04 DipTrace 3.0.0.1*
G04 BottomSilk.gbr*
%MOIN*%
G04 #@! TF.FileFunction,Legend,Bot*
G04 #@! TF.Part,Single*
%ADD10C,0.009843*%
%ADD12C,0.002992*%
%ADD74C,0.00772*%
%ADD75C,0.004632*%
%ADD76C,0.009264*%
%FSLAX26Y26*%
G04*
G70*
G90*
G75*
G01*
G04 BotSilk*
%LPD*%
X863820Y1605521D2*
D10*
Y1581881D1*
X852001Y1593701D2*
X875614D1*
X893765D2*
G02X893765Y1593701I99965J0D01*
G01*
X973761Y1953701D2*
X1113641D1*
X973761Y1833701D2*
X1113641D1*
Y1953701D2*
G02X1113641Y1833701I60J-60000D01*
G01*
X973761D2*
G02X973761Y1953701I-60J60000D01*
G01*
X1413641Y1833701D2*
X1273761D1*
X1413641Y1953701D2*
X1273761D1*
Y1833701D2*
G02X1273761Y1953701I-60J60000D01*
G01*
X1413641D2*
G02X1413641Y1833701I60J-60000D01*
G01*
X613551Y1863701D2*
Y1923701D1*
X773851Y1863701D2*
X613551D1*
X773851D2*
Y1923701D1*
X613551D1*
X2343701Y2293701D2*
Y1893701D1*
X2143701Y2293701D2*
Y1893701D1*
X2343701Y2293701D2*
X2143701D1*
X2343701Y1893701D2*
X2143701D1*
X485039Y1996065D2*
X1902362D1*
X485039Y1791337D2*
X1902362D1*
Y1996065D2*
Y1791337D1*
X485039Y1996065D2*
Y1917332D1*
Y1791337D2*
Y1870070D1*
Y1917332D2*
G02X485039Y1870070I-103J-23631D01*
G01*
X1549685Y690709D2*
D12*
X1833937D1*
X1548095Y687717D2*
X1549685D1*
X1833937D2*
X1835527D1*
X1546693Y684724D2*
D3*
X1836929D2*
D3*
X1552677Y678740D2*
X1830945D1*
X1552677Y675748D2*
X1830945D1*
X1552677Y672756D2*
X1830945D1*
X1552677Y669764D2*
X1624728D1*
X1672334D2*
X1669370D1*
X1675354D2*
X1711288D1*
X1757844D2*
X1830945D1*
X1552677Y666772D2*
X1613655D1*
X1648869D2*
X1734753D1*
X1769925D2*
X1830945D1*
X1552677Y663780D2*
X1603736D1*
X1630000D2*
X1753622D1*
X1780060D2*
X1830945D1*
X1552677Y660787D2*
X1595027D1*
X1615432D2*
X1768190D1*
X1788637D2*
X1830945D1*
X1552677Y657795D2*
X1587416D1*
X1604229D2*
X1779393D1*
X1795904D2*
X1830945D1*
X1552677Y654803D2*
X1580986D1*
X1595240D2*
X1788382D1*
X1801955D2*
X1830945D1*
X1552677Y651811D2*
X1575783D1*
X1587920D2*
X1609653D1*
X1630472D2*
X1634052D1*
X1654409D2*
X1657402D1*
X1678221D2*
X1687911D1*
X1699291D2*
X1705750D1*
X1717244D2*
X1728750D1*
X1744185D2*
X1759146D1*
X1779369D2*
X1795702D1*
X1807086D2*
X1830945D1*
X1552677Y648819D2*
X1571705D1*
X1582194D2*
X1607161D1*
X1630472D2*
X1632291D1*
X1654409D2*
X1657402D1*
X1680713D2*
X1686173D1*
X1699291D2*
X1703614D1*
X1720236D2*
X1728008D1*
X1744290D2*
X1756270D1*
X1781119D2*
X1801428D1*
X1811401D2*
X1830945D1*
X1552677Y645827D2*
X1568611D1*
X1577744D2*
X1605396D1*
X1630472D2*
X1631221D1*
X1654409D2*
X1657402D1*
X1682489D2*
X1685003D1*
X1699291D2*
X1701866D1*
X1718867D2*
X1727222D1*
X1744671D2*
X1753776D1*
X1780825D2*
X1805878D1*
X1814737D2*
X1830945D1*
X1552677Y642835D2*
X1566395D1*
X1574047D2*
X1604217D1*
X1615512D2*
X1618504D1*
X1630472D2*
X1642441D1*
X1654409D2*
X1657402D1*
X1663386D2*
X1669370D1*
X1683499D2*
X1685190D1*
X1699291D2*
X1700467D1*
X1718121D2*
X1726593D1*
X1745400D2*
X1751999D1*
X1765118D2*
X1768110D1*
X1780079D2*
X1809575D1*
X1817113D2*
X1830945D1*
X1552677Y639843D2*
X1564646D1*
X1570630D2*
X1604304D1*
X1615512D2*
X1618504D1*
X1630472D2*
X1642441D1*
X1654409D2*
X1670394D1*
X1683988D2*
X1686048D1*
X1699291D2*
D3*
X1717861D2*
X1725922D1*
X1746272D2*
X1750989D1*
X1764119D2*
X1768110D1*
X1783071D2*
X1812992D1*
X1818976D2*
X1830945D1*
X1552677Y636850D2*
X1604756D1*
X1630472D2*
X1633465D1*
X1654409D2*
X1657990D1*
X1669370D2*
X1671292D1*
X1684198D2*
X1687323D1*
X1718899D2*
X1724973D1*
X1747187D2*
X1750501D1*
X1763189D2*
X1768110D1*
X1780079D2*
X1830945D1*
X1552677Y633858D2*
X1605071D1*
X1630472D2*
X1633465D1*
X1654409D2*
X1656240D1*
X1672362D2*
X1671905D1*
X1684282D2*
X1684331D1*
X1720236D2*
X1723772D1*
X1735197D2*
D3*
X1748286D2*
X1750290D1*
X1763327D2*
X1768110D1*
X1783071D2*
X1830945D1*
X1552677Y630866D2*
X1604848D1*
X1618504D2*
D3*
X1630472D2*
X1642441D1*
X1654409D2*
X1655249D1*
X1669370D2*
X1672362D1*
X1684290D2*
X1687323D1*
X1705276D2*
D3*
X1719059D2*
X1722501D1*
X1735197D2*
D3*
X1749562D2*
X1750203D1*
X1765427D2*
X1768110D1*
X1780079D2*
X1830945D1*
X1552677Y627874D2*
X1564760D1*
X1572709D2*
X1604348D1*
X1617123D2*
X1618504D1*
X1630472D2*
X1642441D1*
X1654409D2*
X1654877D1*
X1684074D2*
X1686064D1*
X1703788D2*
X1705276D1*
X1718996D2*
X1721335D1*
X1750853D2*
X1750157D1*
X1768110D2*
D3*
X1783071D2*
X1810913D1*
X1818862D2*
X1830945D1*
X1552677Y624882D2*
X1568147D1*
X1577326D2*
X1603947D1*
X1616260D2*
X1618504D1*
X1630472D2*
D3*
X1654409D2*
X1655129D1*
X1683535D2*
X1685315D1*
X1702122D2*
X1705276D1*
X1718748D2*
X1720219D1*
X1751926D2*
X1753150D1*
X1780079D2*
X1806296D1*
X1815475D2*
X1830945D1*
X1552677Y621890D2*
X1571985D1*
X1582248D2*
X1603707D1*
X1615803D2*
X1618504D1*
X1630472D2*
X1631875D1*
X1654409D2*
X1656066D1*
X1681204D2*
X1686145D1*
X1700611D2*
X1705276D1*
X1718055D2*
X1718848D1*
X1732205D2*
X1741181D1*
X1752633D2*
X1756142D1*
X1783071D2*
X1801374D1*
X1811637D2*
X1830945D1*
X1552677Y618898D2*
X1576359D1*
X1588317D2*
X1603543D1*
X1615512D2*
X1618504D1*
X1630472D2*
X1633465D1*
X1654409D2*
X1657402D1*
X1678346D2*
X1687323D1*
X1699291D2*
X1705276D1*
X1717244D2*
D3*
X1732205D2*
X1741181D1*
X1753150D2*
X1759134D1*
X1780079D2*
X1795305D1*
X1807274D2*
X1830945D1*
X1552677Y615906D2*
X1581586D1*
X1595579D2*
X1788043D1*
X1802141D2*
X1830945D1*
X1552677Y612913D2*
X1588076D1*
X1604152D2*
X1779470D1*
X1795927D2*
X1830945D1*
X1552677Y609921D2*
X1595938D1*
X1615044D2*
X1768578D1*
X1788401D2*
X1830945D1*
X1552677Y606929D2*
X1605498D1*
X1629642D2*
X1753980D1*
X1778891D2*
X1830945D1*
X1552677Y603937D2*
X1617624D1*
X1648353D2*
X1735269D1*
X1766520D2*
X1830945D1*
X1552677Y600945D2*
X1632859D1*
X1669370D2*
D3*
X1678346D2*
X1702283D1*
X1714252D2*
D3*
X1751039D2*
X1830945D1*
X1552677Y597953D2*
X1650582D1*
X1733155D2*
X1830945D1*
X1552677Y594961D2*
X1830945D1*
X1552677Y591969D2*
X1830945D1*
X1699291Y571024D2*
X1705276D1*
X1714252D2*
X1717244D1*
X1729213D2*
X1738189D1*
X1750157D2*
X1765118D1*
X1774094D2*
X1777087D1*
X1699291Y568031D2*
X1705276D1*
X1714252D2*
X1717244D1*
X1728163D2*
X1740593D1*
X1750157D2*
X1765118D1*
X1774094D2*
X1777087D1*
X1699291Y565039D2*
X1705276D1*
X1714252D2*
X1717244D1*
X1727145D2*
X1742343D1*
X1750157D2*
X1765118D1*
X1774094D2*
X1777087D1*
X1699291Y562047D2*
X1705276D1*
X1714252D2*
X1717244D1*
X1726220D2*
X1729213D1*
X1737601D2*
X1743345D1*
X1750157D2*
X1765118D1*
X1774094D2*
X1777087D1*
X1603543Y559055D2*
X1609528D1*
X1699291D2*
X1717244D1*
X1739339D2*
X1743831D1*
X1750157D2*
X1777087D1*
X1601586Y556063D2*
X1610104D1*
X1699291D2*
X1717244D1*
X1740508D2*
X1744041D1*
X1750157D2*
X1777087D1*
X1599601Y553071D2*
X1611241D1*
X1699291D2*
X1717244D1*
X1726220D2*
X1732205D1*
X1740322D2*
X1744113D1*
X1750157D2*
X1777087D1*
X1597674Y550079D2*
X1603657D1*
X1609528D2*
X1612838D1*
X1699303D2*
X1717244D1*
X1726220D2*
X1730802D1*
X1739464D2*
X1744028D1*
X1750157D2*
X1777087D1*
X1596178Y547087D2*
X1601060D1*
X1610664D2*
X1614522D1*
X1699417D2*
X1705276D1*
X1714252D2*
X1717244D1*
X1726220D2*
X1729213D1*
X1738189D2*
X1743541D1*
X1750157D2*
X1764995D1*
X1774094D2*
X1777087D1*
X1595195Y544094D2*
X1598902D1*
X1611950D2*
X1616144D1*
X1699879D2*
X1705276D1*
X1714252D2*
X1717244D1*
X1726220D2*
X1742341D1*
X1750157D2*
X1764531D1*
X1774094D2*
X1777087D1*
X1594368Y541102D2*
X1597176D1*
X1613340D2*
X1617709D1*
X1700902D2*
X1705276D1*
X1714252D2*
X1717244D1*
X1726220D2*
X1740429D1*
X1750157D2*
X1763507D1*
X1774094D2*
X1777087D1*
X1593344Y538110D2*
X1595909D1*
X1614793D2*
X1619232D1*
X1702283D2*
X1705276D1*
X1714252D2*
X1717244D1*
X1726220D2*
D3*
X1732205D2*
X1738189D1*
X1750157D2*
X1753150D1*
X1762126D2*
D3*
X1774094D2*
X1777087D1*
X1592014Y535118D2*
X1595071D1*
X1616269D2*
X1620731D1*
X1590354Y532126D2*
X1594316D1*
X1603543D2*
X1609528D1*
X1617761D2*
X1622124D1*
X1588477Y529134D2*
X1593324D1*
X1604578D2*
X1609539D1*
X1619252D2*
X1623242D1*
X1586665Y526142D2*
X1592007D1*
X1605583D2*
X1609644D1*
X1620738D2*
X1624020D1*
X1584990Y523150D2*
X1590352D1*
X1606614D2*
X1610026D1*
X1622126D2*
X1624751D1*
X1583417Y520157D2*
X1588476D1*
X1607946D2*
X1610742D1*
X1623243D2*
X1625723D1*
X1581979Y517165D2*
X1586664D1*
X1597559D2*
X1600551D1*
X1609528D2*
X1611510D1*
X1624020D2*
X1626944D1*
X1580754Y514173D2*
X1584990D1*
X1599066D2*
X1612034D1*
X1624752D2*
X1628323D1*
X1669370D2*
X1684331D1*
X1696299D2*
X1702283D1*
X1720236D2*
X1723228D1*
X1732205D2*
X1750157D1*
X1762126D2*
X1765118D1*
X1777087D2*
X1786063D1*
X1795039D2*
X1801024D1*
X1810000D2*
X1815984D1*
X1579684Y511181D2*
X1583416D1*
X1600414D2*
X1612327D1*
X1625735D2*
X1629862D1*
X1667781D2*
X1684331D1*
X1693857D2*
X1704127D1*
X1718741D2*
X1725072D1*
X1732953D2*
X1750157D1*
X1762126D2*
X1765118D1*
X1775705D2*
X1787907D1*
X1796074D2*
X1801024D1*
X1808597D2*
X1814591D1*
X1578522Y508189D2*
X1581979D1*
X1601947D2*
X1602967D1*
X1612520D2*
D3*
X1627050D2*
X1631624D1*
X1666378D2*
X1684331D1*
X1691915D2*
X1705728D1*
X1717498D2*
X1726673D1*
X1735038D2*
X1750157D1*
X1762126D2*
X1765118D1*
X1774846D2*
X1789508D1*
X1797070D2*
X1801024D1*
X1807008D2*
X1813627D1*
X1577211Y505197D2*
X1580754D1*
X1603636D2*
X1604822D1*
X1628704D2*
X1633543D1*
X1678346D2*
X1684331D1*
X1690315D2*
X1696299D1*
X1702283D2*
X1706938D1*
X1716346D2*
X1727883D1*
X1737359D2*
X1744173D1*
X1762126D2*
X1765118D1*
X1774411D2*
X1776964D1*
X1785475D2*
X1790717D1*
X1798018D2*
X1812811D1*
X1575807Y502205D2*
X1579684D1*
X1605117D2*
X1606208D1*
X1630579D2*
X1635361D1*
X1674202D2*
X1684331D1*
X1702283D2*
X1707655D1*
X1715386D2*
X1728600D1*
X1739188D2*
X1744173D1*
X1762126D2*
X1765118D1*
X1774218D2*
X1776499D1*
X1787213D2*
X1791423D1*
X1799028D2*
X1811901D1*
X1574346Y499213D2*
X1578522D1*
X1606411D2*
X1607436D1*
X1632391D2*
X1636937D1*
X1671132D2*
X1696299D1*
X1702283D2*
X1707999D1*
X1714786D2*
X1720236D1*
X1726220D2*
X1728956D1*
X1740270D2*
X1744173D1*
X1762126D2*
X1765118D1*
X1774140D2*
X1775476D1*
X1788382D2*
X1791674D1*
X1799927D2*
X1811056D1*
X1572867Y496220D2*
X1577211D1*
X1607870D2*
X1608545D1*
X1634065D2*
X1638143D1*
X1670123D2*
X1695749D1*
X1702283D2*
X1708051D1*
X1714479D2*
X1717244D1*
X1726220D2*
X1729124D1*
X1740802D2*
X1744173D1*
X1762126D2*
X1765118D1*
X1774111D2*
X1774094D1*
X1788196D2*
X1791449D1*
X1800515D2*
X1810493D1*
X1571386Y493228D2*
X1575795D1*
X1609528D2*
D3*
X1635639D2*
X1638958D1*
X1678346D2*
X1694699D1*
X1702283D2*
X1707721D1*
X1714341D2*
X1729293D1*
X1741034D2*
X1744173D1*
X1762126D2*
X1765118D1*
X1774112D2*
X1775684D1*
X1787338D2*
X1790784D1*
X1800918D2*
X1810099D1*
X1569999Y490236D2*
X1574230D1*
X1637065D2*
X1639680D1*
X1678346D2*
X1693307D1*
X1702283D2*
X1706914D1*
X1714285D2*
X1729700D1*
X1741127D2*
X1744173D1*
X1753150D2*
X1765118D1*
X1774222D2*
X1777087D1*
X1786063D2*
X1789926D1*
X1801436D2*
X1809585D1*
X1568894Y487244D2*
X1572366D1*
X1638193D2*
X1640439D1*
X1666378D2*
X1705685D1*
X1714264D2*
X1730450D1*
X1741162D2*
X1744173D1*
X1753150D2*
X1765118D1*
X1774683D2*
X1788949D1*
X1802233D2*
X1808790D1*
X1568220Y484252D2*
X1570102D1*
X1638921D2*
X1641092D1*
X1667781D2*
X1704098D1*
X1714256D2*
X1717244D1*
X1729213D2*
X1731344D1*
X1741175D2*
X1744173D1*
X1753150D2*
X1765118D1*
X1775706D2*
X1787636D1*
X1803145D2*
X1807878D1*
X1567864Y481260D2*
X1640452D1*
X1669370D2*
X1684331D1*
X1690315D2*
D3*
X1696299D2*
X1702283D1*
X1714252D2*
D3*
X1729213D2*
X1732205D1*
X1741181D2*
X1744173D1*
X1753150D2*
X1765118D1*
X1777087D2*
X1786063D1*
X1804016D2*
X1807008D1*
X1567638Y478268D2*
X1639449D1*
X1546693Y454331D2*
D3*
Y451339D2*
D3*
X1836929D2*
D3*
X1546693Y448346D2*
X1549685D1*
X1833937D2*
X1836929D1*
X1549685Y690709D2*
X1548095Y687717D1*
X1546693Y684724D1*
X1833937Y690709D2*
X1835527Y687717D1*
X1836929Y684724D1*
X1549685Y687717D2*
X1546693Y684724D1*
X1833937Y687717D2*
X1836929Y684724D1*
X1552677Y678740D2*
Y675748D1*
Y672756D1*
Y669764D1*
Y666772D1*
Y663780D1*
Y660787D1*
Y657795D1*
Y654803D1*
Y651811D1*
Y648819D1*
Y645827D1*
Y642835D1*
Y639843D1*
Y636850D1*
Y633858D1*
Y630866D1*
Y627874D1*
Y624882D1*
Y621890D1*
Y618898D1*
Y615906D1*
Y612913D1*
Y609921D1*
Y606929D1*
Y603937D1*
Y600945D1*
Y597953D1*
Y594961D1*
Y591969D1*
X1830945Y678740D2*
Y675748D1*
Y672756D1*
Y669764D1*
Y666772D1*
Y663780D1*
Y660787D1*
Y657795D1*
Y654803D1*
Y651811D1*
Y648819D1*
Y645827D1*
Y642835D1*
Y639843D1*
Y636850D1*
Y633858D1*
Y630866D1*
Y627874D1*
Y624882D1*
Y621890D1*
Y618898D1*
Y615906D1*
Y612913D1*
Y609921D1*
Y606929D1*
Y603937D1*
Y600945D1*
Y597953D1*
Y594961D1*
Y591969D1*
X1636457Y672756D2*
X1624728Y669764D1*
X1613655Y666772D1*
X1603736Y663780D1*
X1595027Y660787D1*
X1587416Y657795D1*
X1580986Y654803D1*
X1575783Y651811D1*
X1571705Y648819D1*
X1568611Y645827D1*
X1566395Y642835D1*
X1564646Y639843D1*
X1699291Y672756D2*
X1672334Y669764D1*
X1648869Y666772D1*
X1630000Y663780D1*
X1615432Y660787D1*
X1604229Y657795D1*
X1595240Y654803D1*
X1587920Y651811D1*
X1582194Y648819D1*
X1577744Y645827D1*
X1574047Y642835D1*
X1570630Y639843D1*
X1672362Y672756D2*
X1675354Y669764D1*
X1684331Y672756D2*
X1711288Y669764D1*
X1734753Y666772D1*
X1753622Y663780D1*
X1768190Y660787D1*
X1779393Y657795D1*
X1788382Y654803D1*
X1795702Y651811D1*
X1801428Y648819D1*
X1805878Y645827D1*
X1809575Y642835D1*
X1812992Y639843D1*
X1744173Y672756D2*
X1757844Y669764D1*
X1769925Y666772D1*
X1780060Y663780D1*
X1788637Y660787D1*
X1795904Y657795D1*
X1801955Y654803D1*
X1807086Y651811D1*
X1811401Y648819D1*
X1814737Y645827D1*
X1817113Y642835D1*
X1818976Y639843D1*
X1612520Y654803D2*
X1609653Y651811D1*
X1607161Y648819D1*
X1605396Y645827D1*
X1604217Y642835D1*
X1604304Y639843D1*
X1604756Y636850D1*
X1605071Y633858D1*
X1604848Y630866D1*
X1604348Y627874D1*
X1603947Y624882D1*
X1603707Y621890D1*
X1603543Y618898D1*
X1630472Y654803D2*
Y651811D1*
Y648819D1*
Y645827D1*
Y642835D1*
Y639843D1*
Y636850D1*
Y633858D1*
Y630866D1*
Y627874D1*
Y624882D1*
Y621890D1*
Y618898D1*
X1636457Y654803D2*
X1634052Y651811D1*
X1632291Y648819D1*
X1631221Y645827D1*
X1630472Y642835D1*
X1642441D1*
Y639843D1*
Y636850D1*
X1633465D1*
Y633858D1*
Y630866D1*
X1642441D1*
Y627874D1*
Y624882D1*
X1630472D1*
X1631875Y621890D1*
X1633465Y618898D1*
X1654409Y654803D2*
Y651811D1*
Y648819D1*
Y645827D1*
Y642835D1*
Y639843D1*
Y636850D1*
Y633858D1*
Y630866D1*
Y627874D1*
Y624882D1*
Y621890D1*
Y618898D1*
X1657402Y654803D2*
Y651811D1*
Y648819D1*
Y645827D1*
Y642835D1*
X1675354Y654803D2*
X1678221Y651811D1*
X1680713Y648819D1*
X1682489Y645827D1*
X1683499Y642835D1*
X1683988Y639843D1*
X1684198Y636850D1*
X1684282Y633858D1*
X1684290Y630866D1*
X1684074Y627874D1*
X1683535Y624882D1*
X1681204Y621890D1*
X1678346Y618898D1*
X1690315Y654803D2*
X1687911Y651811D1*
X1686173Y648819D1*
X1685003Y645827D1*
X1685190Y642835D1*
X1686048Y639843D1*
X1687323Y636850D1*
X1684331Y633858D1*
X1687323Y630866D1*
X1686064Y627874D1*
X1685315Y624882D1*
X1686145Y621890D1*
X1687323Y618898D1*
X1699291Y654803D2*
Y651811D1*
Y648819D1*
Y645827D1*
Y642835D1*
Y639843D1*
X1708268Y654803D2*
X1705750Y651811D1*
X1703614Y648819D1*
X1701866Y645827D1*
X1700467Y642835D1*
X1699291Y639843D1*
X1714252Y654803D2*
X1717244Y651811D1*
X1720236Y648819D1*
X1718867Y645827D1*
X1718121Y642835D1*
X1717861Y639843D1*
X1718899Y636850D1*
X1720236Y633858D1*
X1719059Y630866D1*
X1718996Y627874D1*
X1718748Y624882D1*
X1718055Y621890D1*
X1717244Y618898D1*
X1729213Y654803D2*
X1728750Y651811D1*
X1728008Y648819D1*
X1727222Y645827D1*
X1726593Y642835D1*
X1725922Y639843D1*
X1724973Y636850D1*
X1723772Y633858D1*
X1722501Y630866D1*
X1721335Y627874D1*
X1720219Y624882D1*
X1718848Y621890D1*
X1717244Y618898D1*
X1744173Y654803D2*
X1744185Y651811D1*
X1744290Y648819D1*
X1744671Y645827D1*
X1745400Y642835D1*
X1746272Y639843D1*
X1747187Y636850D1*
X1748286Y633858D1*
X1749562Y630866D1*
X1750853Y627874D1*
X1751926Y624882D1*
X1752633Y621890D1*
X1753150Y618898D1*
X1762126Y654803D2*
X1759146Y651811D1*
X1756270Y648819D1*
X1753776Y645827D1*
X1751999Y642835D1*
X1750989Y639843D1*
X1750501Y636850D1*
X1750290Y633858D1*
X1750203Y630866D1*
X1750157Y627874D1*
X1777087Y654803D2*
X1779369Y651811D1*
X1781119Y648819D1*
X1780825Y645827D1*
X1780079Y642835D1*
X1783071Y639843D1*
X1780079Y636850D1*
X1783071Y633858D1*
X1780079Y630866D1*
X1783071Y627874D1*
X1780079Y624882D1*
X1783071Y621890D1*
X1780079Y618898D1*
X1615512Y642835D2*
Y639843D1*
X1618504Y642835D2*
Y639843D1*
X1663386Y642835D2*
X1669370D2*
X1670394Y639843D1*
X1671292Y636850D1*
X1671905Y633858D1*
X1672362Y630866D1*
X1765118Y642835D2*
X1764119Y639843D1*
X1763189Y636850D1*
X1763327Y633858D1*
X1765427Y630866D1*
X1768110Y627874D1*
Y642835D2*
Y639843D1*
Y636850D1*
Y633858D1*
Y630866D1*
Y627874D1*
X1660394Y639843D2*
X1657990Y636850D1*
X1656240Y633858D1*
X1655249Y630866D1*
X1654877Y627874D1*
X1655129Y624882D1*
X1656066Y621890D1*
X1657402Y618898D1*
X1669370Y636850D2*
X1672362Y633858D1*
X1669370Y630866D1*
X1735197Y633858D2*
Y630866D1*
X1618504D2*
X1617123Y627874D1*
X1616260Y624882D1*
X1615803Y621890D1*
X1615512Y618898D1*
X1705276Y630866D2*
X1703788Y627874D1*
X1702122Y624882D1*
X1700611Y621890D1*
X1699291Y618898D1*
X1561654Y630866D2*
X1564760Y627874D1*
X1568147Y624882D1*
X1571985Y621890D1*
X1576359Y618898D1*
X1581586Y615906D1*
X1588076Y612913D1*
X1595938Y609921D1*
X1605498Y606929D1*
X1617624Y603937D1*
X1632859Y600945D1*
X1650582Y597953D1*
X1669370Y594961D1*
X1567638Y630866D2*
X1572709Y627874D1*
X1577326Y624882D1*
X1582248Y621890D1*
X1588317Y618898D1*
X1595579Y615906D1*
X1604152Y612913D1*
X1615044Y609921D1*
X1629642Y606929D1*
X1648353Y603937D1*
X1669370Y600945D1*
X1618504Y627874D2*
Y624882D1*
Y621890D1*
Y618898D1*
X1815984Y630866D2*
X1810913Y627874D1*
X1806296Y624882D1*
X1801374Y621890D1*
X1795305Y618898D1*
X1788043Y615906D1*
X1779470Y612913D1*
X1768578Y609921D1*
X1753980Y606929D1*
X1735269Y603937D1*
X1714252Y600945D1*
X1821969Y630866D2*
X1818862Y627874D1*
X1815475Y624882D1*
X1811637Y621890D1*
X1807274Y618898D1*
X1802141Y615906D1*
X1795927Y612913D1*
X1788401Y609921D1*
X1778891Y606929D1*
X1766520Y603937D1*
X1751039Y600945D1*
X1733155Y597953D1*
X1714252Y594961D1*
X1705276Y624882D2*
Y621890D1*
Y618898D1*
X1732205Y621890D2*
Y618898D1*
X1741181Y621890D2*
Y618898D1*
X1756142Y621890D2*
X1759134Y618898D1*
X1675354Y603937D2*
X1678346Y600945D1*
X1705276Y603937D2*
X1702283Y600945D1*
X1699291Y571024D2*
Y568031D1*
Y565039D1*
Y562047D1*
Y559055D1*
Y556063D1*
Y553071D1*
X1699303Y550079D1*
X1699417Y547087D1*
X1699879Y544094D1*
X1700902Y541102D1*
X1702283Y538110D1*
X1705276Y571024D2*
Y568031D1*
Y565039D1*
Y562047D1*
X1714252Y571024D2*
Y568031D1*
Y565039D1*
Y562047D1*
X1717244Y571024D2*
Y568031D1*
Y565039D1*
Y562047D1*
Y559055D1*
Y556063D1*
Y553071D1*
Y550079D1*
Y547087D1*
Y544094D1*
Y541102D1*
Y538110D1*
X1729213Y571024D2*
X1728163Y568031D1*
X1727145Y565039D1*
X1726220Y562047D1*
X1738189Y571024D2*
X1740593Y568031D1*
X1742343Y565039D1*
X1743345Y562047D1*
X1743831Y559055D1*
X1744041Y556063D1*
X1744113Y553071D1*
X1744028Y550079D1*
X1743541Y547087D1*
X1742341Y544094D1*
X1740429Y541102D1*
X1738189Y538110D1*
X1750157Y571024D2*
Y568031D1*
Y565039D1*
Y562047D1*
Y559055D1*
Y556063D1*
Y553071D1*
Y550079D1*
Y547087D1*
Y544094D1*
Y541102D1*
Y538110D1*
X1765118Y571024D2*
Y568031D1*
Y565039D1*
Y562047D1*
X1774094Y571024D2*
Y568031D1*
Y565039D1*
Y562047D1*
X1777087Y571024D2*
Y568031D1*
Y565039D1*
Y562047D1*
Y559055D1*
Y556063D1*
Y553071D1*
Y550079D1*
Y547087D1*
Y544094D1*
Y541102D1*
Y538110D1*
X1732205Y565039D2*
X1729213Y562047D1*
X1735197Y565039D2*
X1737601Y562047D1*
X1739339Y559055D1*
X1740508Y556063D1*
X1740322Y553071D1*
X1739464Y550079D1*
X1738189Y547087D1*
X1603543Y559055D2*
X1601586Y556063D1*
X1599601Y553071D1*
X1597674Y550079D1*
X1596178Y547087D1*
X1595195Y544094D1*
X1594368Y541102D1*
X1593344Y538110D1*
X1592014Y535118D1*
X1590354Y532126D1*
X1588477Y529134D1*
X1586665Y526142D1*
X1584990Y523150D1*
X1583417Y520157D1*
X1581979Y517165D1*
X1580754Y514173D1*
X1579684Y511181D1*
X1578522Y508189D1*
X1577211Y505197D1*
X1575807Y502205D1*
X1574346Y499213D1*
X1572867Y496220D1*
X1571386Y493228D1*
X1569999Y490236D1*
X1568894Y487244D1*
X1568220Y484252D1*
X1567864Y481260D1*
X1567638Y478268D1*
X1609528Y559055D2*
X1610104Y556063D1*
X1611241Y553071D1*
X1612838Y550079D1*
X1614522Y547087D1*
X1616144Y544094D1*
X1617709Y541102D1*
X1619232Y538110D1*
X1620731Y535118D1*
X1622124Y532126D1*
X1623242Y529134D1*
X1624020Y526142D1*
X1624751Y523150D1*
X1625723Y520157D1*
X1626944Y517165D1*
X1628323Y514173D1*
X1629862Y511181D1*
X1631624Y508189D1*
X1633543Y505197D1*
X1635361Y502205D1*
X1636937Y499213D1*
X1638143Y496220D1*
X1638958Y493228D1*
X1639680Y490236D1*
X1640439Y487244D1*
X1641092Y484252D1*
X1640452Y481260D1*
X1639449Y478268D1*
X1726220Y553071D2*
Y550079D1*
Y547087D1*
Y544094D1*
Y541102D1*
Y538110D1*
X1732205Y553071D2*
X1730802Y550079D1*
X1729213Y547087D1*
X1606535Y553071D2*
X1603657Y550079D1*
X1601060Y547087D1*
X1598902Y544094D1*
X1597176Y541102D1*
X1595909Y538110D1*
X1595071Y535118D1*
X1594316Y532126D1*
X1593324Y529134D1*
X1592007Y526142D1*
X1590352Y523150D1*
X1588476Y520157D1*
X1586664Y517165D1*
X1584990Y514173D1*
X1583416Y511181D1*
X1581979Y508189D1*
X1580754Y505197D1*
X1579684Y502205D1*
X1578522Y499213D1*
X1577211Y496220D1*
X1575795Y493228D1*
X1574230Y490236D1*
X1572366Y487244D1*
X1570102Y484252D1*
X1567638Y481260D1*
X1609528Y550079D2*
X1610664Y547087D1*
X1611950Y544094D1*
X1613340Y541102D1*
X1614793Y538110D1*
X1616269Y535118D1*
X1617761Y532126D1*
X1619252Y529134D1*
X1620738Y526142D1*
X1622126Y523150D1*
X1623243Y520157D1*
X1624020Y517165D1*
X1624752Y514173D1*
X1625735Y511181D1*
X1627050Y508189D1*
X1628704Y505197D1*
X1630579Y502205D1*
X1632391Y499213D1*
X1634065Y496220D1*
X1635639Y493228D1*
X1637065Y490236D1*
X1638193Y487244D1*
X1638921Y484252D1*
X1639449Y481260D1*
X1705276Y550079D2*
Y547087D1*
Y544094D1*
Y541102D1*
Y538110D1*
X1714252Y550079D2*
Y547087D1*
Y544094D1*
Y541102D1*
Y538110D1*
X1765118Y550079D2*
X1764995Y547087D1*
X1764531Y544094D1*
X1763507Y541102D1*
X1762126Y538110D1*
X1774094Y550079D2*
Y547087D1*
Y544094D1*
Y541102D1*
Y538110D1*
X1729213Y541102D2*
X1732205Y538110D1*
X1756142Y541102D2*
X1753150Y538110D1*
X1603543Y532126D2*
X1604578Y529134D1*
X1605583Y526142D1*
X1606614Y523150D1*
X1607946Y520157D1*
X1609528Y517165D1*
Y532126D2*
X1609539Y529134D1*
X1609644Y526142D1*
X1610026Y523150D1*
X1610742Y520157D1*
X1611510Y517165D1*
X1612034Y514173D1*
X1612327Y511181D1*
X1612520Y508189D1*
X1597559Y517165D2*
X1599066Y514173D1*
X1600414Y511181D1*
X1601947Y508189D1*
X1603636Y505197D1*
X1605117Y502205D1*
X1606411Y499213D1*
X1607870Y496220D1*
X1609528Y493228D1*
X1600551Y517165D2*
X1669370Y514173D2*
X1667781Y511181D1*
X1666378Y508189D1*
X1678346Y505197D1*
X1674202Y502205D1*
X1671132Y499213D1*
X1670123Y496220D1*
X1669370Y493228D1*
X1678346D1*
Y490236D1*
Y487244D1*
X1666378D1*
X1667781Y484252D1*
X1669370Y481260D1*
X1684331Y514173D2*
Y511181D1*
Y508189D1*
Y505197D1*
Y502205D1*
Y499213D1*
X1696299D1*
X1695749Y496220D1*
X1694699Y493228D1*
X1693307Y490236D1*
X1696299Y514173D2*
X1693857Y511181D1*
X1691915Y508189D1*
X1690315Y505197D1*
X1702283Y514173D2*
X1704127Y511181D1*
X1705728Y508189D1*
X1706938Y505197D1*
X1707655Y502205D1*
X1707999Y499213D1*
X1708051Y496220D1*
X1707721Y493228D1*
X1706914Y490236D1*
X1705685Y487244D1*
X1704098Y484252D1*
X1702283Y481260D1*
X1720236Y514173D2*
X1718741Y511181D1*
X1717498Y508189D1*
X1716346Y505197D1*
X1715386Y502205D1*
X1714786Y499213D1*
X1714479Y496220D1*
X1714341Y493228D1*
X1714285Y490236D1*
X1714264Y487244D1*
X1714256Y484252D1*
X1714252Y481260D1*
X1723228Y514173D2*
X1725072Y511181D1*
X1726673Y508189D1*
X1727883Y505197D1*
X1728600Y502205D1*
X1728956Y499213D1*
X1729124Y496220D1*
X1729293Y493228D1*
X1729700Y490236D1*
X1730450Y487244D1*
X1731344Y484252D1*
X1732205Y481260D1*
Y514173D2*
X1732953Y511181D1*
X1735038Y508189D1*
X1737359Y505197D1*
X1739188Y502205D1*
X1740270Y499213D1*
X1740802Y496220D1*
X1741034Y493228D1*
X1741127Y490236D1*
X1741162Y487244D1*
X1741175Y484252D1*
X1741181Y481260D1*
X1750157Y514173D2*
Y511181D1*
Y508189D1*
Y505197D1*
X1744173D1*
Y502205D1*
Y499213D1*
Y496220D1*
Y493228D1*
Y490236D1*
Y487244D1*
Y484252D1*
Y481260D1*
X1762126Y514173D2*
Y511181D1*
Y508189D1*
Y505197D1*
Y502205D1*
Y499213D1*
Y496220D1*
Y493228D1*
Y490236D1*
X1753150D1*
Y487244D1*
Y484252D1*
Y481260D1*
X1765118Y514173D2*
Y511181D1*
Y508189D1*
Y505197D1*
Y502205D1*
Y499213D1*
Y496220D1*
Y493228D1*
Y490236D1*
Y487244D1*
Y484252D1*
Y481260D1*
X1777087Y514173D2*
X1775705Y511181D1*
X1774846Y508189D1*
X1774411Y505197D1*
X1774218Y502205D1*
X1774140Y499213D1*
X1774111Y496220D1*
X1774112Y493228D1*
X1774222Y490236D1*
X1774683Y487244D1*
X1775706Y484252D1*
X1777087Y481260D1*
X1786063Y514173D2*
X1787907Y511181D1*
X1789508Y508189D1*
X1790717Y505197D1*
X1791423Y502205D1*
X1791674Y499213D1*
X1791449Y496220D1*
X1790784Y493228D1*
X1789926Y490236D1*
X1788949Y487244D1*
X1787636Y484252D1*
X1786063Y481260D1*
X1795039Y514173D2*
X1796074Y511181D1*
X1797070Y508189D1*
X1798018Y505197D1*
X1799028Y502205D1*
X1799927Y499213D1*
X1800515Y496220D1*
X1800918Y493228D1*
X1801436Y490236D1*
X1802233Y487244D1*
X1803145Y484252D1*
X1804016Y481260D1*
X1801024Y514173D2*
Y511181D1*
Y508189D1*
X1810000Y514173D2*
X1808597Y511181D1*
X1807008Y508189D1*
X1815984Y514173D2*
X1814591Y511181D1*
X1813627Y508189D1*
X1812811Y505197D1*
X1811901Y502205D1*
X1811056Y499213D1*
X1810493Y496220D1*
X1810099Y493228D1*
X1809585Y490236D1*
X1808790Y487244D1*
X1807878Y484252D1*
X1807008Y481260D1*
X1600551Y511181D2*
X1602967Y508189D1*
X1604822Y505197D1*
X1606208Y502205D1*
X1607436Y499213D1*
X1608545Y496220D1*
X1609528Y493228D1*
X1699291Y508189D2*
X1696299Y505197D1*
X1702283Y508189D2*
Y505197D1*
Y502205D1*
Y499213D1*
Y496220D1*
Y493228D1*
Y490236D1*
X1777087Y508189D2*
X1776964Y505197D1*
X1776499Y502205D1*
X1775476Y499213D1*
X1774094Y496220D1*
X1775684Y493228D1*
X1777087Y490236D1*
X1783071Y508189D2*
X1785475Y505197D1*
X1787213Y502205D1*
X1788382Y499213D1*
X1788196Y496220D1*
X1787338Y493228D1*
X1786063Y490236D1*
X1723228Y502205D2*
X1720236Y499213D1*
X1717244Y496220D1*
X1726220Y502205D2*
Y499213D1*
Y496220D1*
X1720236Y487244D2*
X1717244Y484252D1*
X1714252Y481260D1*
X1729213Y484252D2*
Y481260D1*
X1687323Y484252D2*
X1684331Y481260D1*
X1687323Y484252D2*
X1690315Y481260D1*
X1693307Y484252D2*
X1696299Y481260D1*
X1546693Y454331D2*
Y451339D1*
Y448346D1*
X1836929Y451339D2*
X1833937Y448346D1*
X1549685D2*
X1836929D2*
X768629Y1654986D2*
D74*
X771006Y1659739D1*
X775814Y1664547D1*
X780567Y1666924D1*
X790129D1*
X794937Y1664547D1*
X799691Y1659739D1*
X802123Y1654986D1*
X804499Y1647801D1*
Y1635807D1*
X802123Y1628677D1*
X799691Y1623869D1*
X794937Y1619116D1*
X790129Y1616684D1*
X780567D1*
X775814Y1619116D1*
X771006Y1623869D1*
X768629Y1628677D1*
X753190Y1657307D2*
X748381Y1659739D1*
X741196Y1666869D1*
Y1616684D1*
X900232Y1964986D2*
X902609Y1969739D1*
X907417Y1974547D1*
X912170Y1976924D1*
X921732D1*
X926540Y1974547D1*
X931294Y1969739D1*
X933725Y1964986D1*
X936102Y1957801D1*
Y1945807D1*
X933725Y1938677D1*
X931294Y1933869D1*
X926540Y1929116D1*
X921732Y1926684D1*
X912170D1*
X907417Y1929116D1*
X902609Y1933869D1*
X900232Y1938677D1*
X882361Y1964930D2*
Y1967307D1*
X879984Y1972115D1*
X877608Y1974492D1*
X872799Y1976869D1*
X863238D1*
X858485Y1974492D1*
X856108Y1972115D1*
X853676Y1967307D1*
Y1962554D1*
X856108Y1957745D1*
X860861Y1950616D1*
X884793Y1926684D1*
X851300D1*
X1200232Y1964986D2*
X1202609Y1969739D1*
X1207417Y1974547D1*
X1212170Y1976924D1*
X1221732D1*
X1226540Y1974547D1*
X1231294Y1969739D1*
X1233725Y1964986D1*
X1236102Y1957801D1*
Y1945807D1*
X1233725Y1938677D1*
X1231294Y1933869D1*
X1226540Y1929116D1*
X1221732Y1926684D1*
X1212170D1*
X1207417Y1929116D1*
X1202609Y1933869D1*
X1200232Y1938677D1*
X1175231Y1926684D2*
X1151300Y1976869D1*
X1184793D1*
X734914Y1972992D2*
X713414D1*
X706229Y1975424D1*
X703797Y1977801D1*
X701420Y1982554D1*
Y1987362D1*
X703797Y1992115D1*
X706229Y1994547D1*
X713414Y1996924D1*
X734914D1*
Y1946684D1*
X718167Y1972992D2*
X701420Y1946684D1*
X681173Y1996869D2*
X654920D1*
X669234Y1977745D1*
X662049D1*
X657296Y1975369D1*
X654920Y1972992D1*
X652488Y1965807D1*
Y1961054D1*
X654920Y1953869D1*
X659673Y1949060D1*
X666858Y1946684D1*
X674043D1*
X681173Y1949060D1*
X683549Y1951492D1*
X685981Y1956245D1*
X2133725Y2192992D2*
X2112226D1*
X2105041Y2195424D1*
X2102609Y2197801D1*
X2100232Y2202554D1*
Y2207362D1*
X2102609Y2212115D1*
X2105041Y2214547D1*
X2112226Y2216924D1*
X2133725D1*
Y2166684D1*
X2116979Y2192992D2*
X2100232Y2166684D1*
X2053676Y2216924D2*
X2084793D1*
Y2166684D1*
Y2192992D2*
X2065670D1*
X1834914Y1948420D2*
Y1912550D1*
X1832537Y1905365D1*
X1827729Y1900612D1*
X1820544Y1898180D1*
X1815790D1*
X1808605Y1900612D1*
X1803797Y1905365D1*
X1801420Y1912550D1*
Y1948420D1*
X1783549Y1936426D2*
Y1938803D1*
X1781173Y1943611D1*
X1778796Y1945988D1*
X1773988Y1948365D1*
X1764426D1*
X1759673Y1945988D1*
X1757296Y1943611D1*
X1754864Y1938803D1*
Y1934050D1*
X1757296Y1929241D1*
X1762049Y1922112D1*
X1785981Y1898180D1*
X1752488D1*
X1058179Y1326886D2*
D75*
X1045279D1*
X1040968Y1328345D1*
X1039509Y1329771D1*
X1038083Y1332623D1*
Y1335508D1*
X1039509Y1338360D1*
X1040968Y1339819D1*
X1045279Y1341245D1*
X1058179D1*
Y1311101D1*
X1048131Y1326886D2*
X1038083Y1311101D1*
X1021657Y1331197D2*
X1024509Y1329771D1*
X1027394Y1326886D1*
X1028820Y1322575D1*
Y1319723D1*
X1027394Y1315412D1*
X1024509Y1312560D1*
X1021657Y1311101D1*
X1017346D1*
X1014461Y1312560D1*
X1011609Y1315412D1*
X1010150Y1319723D1*
Y1322575D1*
X1011609Y1326886D1*
X1014461Y1329771D1*
X1017346Y1331197D1*
X1021657D1*
X1000886Y1341245D2*
Y1311101D1*
X991623Y1341245D2*
Y1311101D1*
X982359Y1322575D2*
X965148D1*
Y1325460D1*
X966574Y1328345D1*
X968000Y1329771D1*
X970885Y1331197D1*
X975196D1*
X978048Y1329771D1*
X980933Y1326886D1*
X982359Y1322575D1*
Y1319723D1*
X980933Y1315412D1*
X978048Y1312560D1*
X975196Y1311101D1*
X970885D1*
X968000Y1312560D1*
X965148Y1315412D1*
X955885Y1331197D2*
Y1311101D1*
Y1322575D2*
X954425Y1326886D1*
X951573Y1329771D1*
X948688Y1331197D1*
X944377D1*
X885857Y1336934D2*
X888709Y1339819D1*
X893020Y1341245D1*
X898757D1*
X903068Y1339819D1*
X905953Y1336934D1*
Y1334082D1*
X904494Y1331197D1*
X903068Y1329771D1*
X900216Y1328345D1*
X891594Y1325460D1*
X888709Y1324034D1*
X887283Y1322575D1*
X885857Y1319723D1*
Y1315412D1*
X888709Y1312560D1*
X893020Y1311101D1*
X898757D1*
X903068Y1312560D1*
X905953Y1315412D1*
X876594Y1341245D2*
Y1311101D1*
Y1325460D2*
X872283Y1329771D1*
X869398Y1331197D1*
X865087D1*
X862235Y1329771D1*
X860809Y1325460D1*
Y1311101D1*
X851545Y1331197D2*
Y1316838D1*
X850119Y1312560D1*
X847234Y1311101D1*
X842923D1*
X840071Y1312560D1*
X835760Y1316838D1*
Y1331197D2*
Y1311101D1*
X822186Y1341245D2*
Y1316838D1*
X820760Y1312560D1*
X817875Y1311101D1*
X815023D1*
X826497Y1331197D2*
X816449D1*
X801448Y1341245D2*
Y1316838D1*
X800022Y1312560D1*
X797137Y1311101D1*
X794285D1*
X805759Y1331197D2*
X795711D1*
X785022Y1322575D2*
X767811D1*
Y1325460D1*
X769237Y1328345D1*
X770663Y1329771D1*
X773548Y1331197D1*
X777859D1*
X780711Y1329771D1*
X783596Y1326886D1*
X785022Y1322575D1*
Y1319723D1*
X783596Y1315412D1*
X780711Y1312560D1*
X777859Y1311101D1*
X773548D1*
X770663Y1312560D1*
X767811Y1315412D1*
X758547Y1331197D2*
Y1311101D1*
Y1322575D2*
X757088Y1326886D1*
X754236Y1329771D1*
X751351Y1331197D1*
X747040D1*
X688520Y1341245D2*
Y1311101D1*
X708616Y1341245D1*
Y1311101D1*
X672093Y1331197D2*
X674945Y1329771D1*
X677830Y1326886D1*
X679256Y1322575D1*
Y1319723D1*
X677830Y1315412D1*
X674945Y1312560D1*
X672093Y1311101D1*
X667782D1*
X664897Y1312560D1*
X662045Y1315412D1*
X660586Y1319723D1*
Y1322575D1*
X662045Y1326886D1*
X664897Y1329771D1*
X667782Y1331197D1*
X672093D1*
X634112Y1341245D2*
Y1311101D1*
Y1326886D2*
X636964Y1329771D1*
X639849Y1331197D1*
X644160D1*
X647012Y1329771D1*
X649897Y1326886D1*
X651323Y1322575D1*
Y1319723D1*
X649897Y1315412D1*
X647012Y1312560D1*
X644160Y1311101D1*
X639849D1*
X636964Y1312560D1*
X634112Y1315412D1*
X624848Y1322575D2*
X607637D1*
Y1325460D1*
X609063Y1328345D1*
X610489Y1329771D1*
X613374Y1331197D1*
X617685D1*
X620537Y1329771D1*
X623422Y1326886D1*
X624848Y1322575D1*
Y1319723D1*
X623422Y1315412D1*
X620537Y1312560D1*
X617685Y1311101D1*
X613374D1*
X610489Y1312560D1*
X607637Y1315412D1*
X569213Y1341245D2*
X557739Y1311101D1*
X546265Y1341245D1*
X535543Y1334049D2*
Y1335475D1*
X534117Y1338360D1*
X532691Y1339786D1*
X529806Y1341212D1*
X524069D1*
X521217Y1339786D1*
X519791Y1338360D1*
X518332Y1335475D1*
Y1332623D1*
X519791Y1329738D1*
X522643Y1325460D1*
X537002Y1311101D1*
X516906D1*
X506216Y1313986D2*
X507642Y1312527D1*
X506216Y1311101D1*
X504757Y1312527D1*
X506216Y1313986D1*
X495494Y1335475D2*
X492609Y1336934D1*
X488298Y1341212D1*
Y1311101D1*
X775035Y481070D2*
D76*
Y420782D1*
X740613D1*
X540613Y481070D2*
Y420782D1*
X580805Y481070D1*
Y420782D1*
X2030805Y481070D2*
Y438026D1*
X2027953Y429404D1*
X2022183Y423700D1*
X2013561Y420782D1*
X2007857D1*
X1999235Y423700D1*
X1993465Y429404D1*
X1990613Y438026D1*
Y481070D1*
X2230805D2*
Y420782D1*
X2210709D1*
X2202087Y423700D1*
X2196317Y429404D1*
X2193465Y435174D1*
X2190613Y443729D1*
Y458122D1*
X2193465Y466744D1*
X2196317Y472447D1*
X2202087Y478218D1*
X2210709Y481070D1*
X2230805D1*
M02*
