M48
METRIC,0000.00
T01C0.486
T02C0.559
T03C0.7
T04C0.9
T05C1.0
T06C1.1
T07C1.168
T08C1.168
T09C1.3
%
T01
X+005294Y+005291
X+005394Y+005191
X+005697Y+004558
X+004175Y+004825
T02
X+004429Y+004048
X+005064Y+004302
X+005064Y+005064
X+003667Y+004048
X+002143Y+004810
X+001381Y+004810
T03
X+005318Y+004302
X+005445Y+004302
X+005572Y+004302
X+004556Y+005445
X+004556Y+005572
X+004556Y+005699
X+004175Y+003540
X+004048Y+003540
X+003921Y+003540
T04
X+002397Y+004048
X+002651Y+004048
X+002651Y+004429
X+002905Y+004429
X+003159Y+004429
X+003413Y+004429
X+003667Y+004429
X+003921Y+004429
X+004175Y+004429
X+004429Y+004429
X+004683Y+004429
X+004810Y+004048
X+004683Y+003286
X+003673Y+003286
X+002270Y+002778
X+001762Y+002778
X+001889Y+004429
X+002143Y+004429
X+002397Y+004429
X+001635Y+004429
X+001381Y+004429
X+001381Y+005191
X+001635Y+005191
X+001889Y+005191
X+002143Y+005191
X+002397Y+005191
X+002651Y+005191
X+002905Y+005191
X+003159Y+005191
X+003413Y+005191
X+003667Y+005191
X+003921Y+005191
X+004175Y+005191
X+004429Y+005191
X+004683Y+005191
X+005064Y+005445
X+005064Y+005699
X+005572Y+005699
X+005826Y+005699
X+005826Y+005445
X+005572Y+005445
X+005572Y+005191
X+005826Y+005191
X+005826Y+004937
X+005572Y+004937
X+005820Y+004048
X+002778Y+005699
X+001254Y+005699
T05
X+002778Y+004810
X+002524Y+004810
X+003286Y+004810
X+003540Y+004810
T06
X+001889Y+001381
X+001389Y+001381
X+005072Y+001381
X+005572Y+001381
X+004048Y+005826
X+003794Y+005826
X+003540Y+005826
X+003286Y+005826
T07
X+002778Y+002270
X+003286Y+003794
T08
X+001254Y+002270
X+003286Y+002270
T09
X+004556Y+003032
X+004907Y+002770
X+004907Y+002008
X+005699Y+002262
X+005699Y+003794
X+004907Y+003794
X+003764Y+003032
X+003764Y+002008
X+003286Y+001635
X+003764Y+001246
X+002536Y+001815
T00
M30
