G04 DipTrace 3.0.0.1*
G04 TopSilk.gbr*
%MOIN*%
G04 #@! TF.FileFunction,Legend,Top*
G04 #@! TF.Part,Single*
%ADD10C,0.009843*%
%ADD74C,0.00772*%
%ADD75C,0.004632*%
%FSLAX26Y26*%
G04*
G70*
G90*
G75*
G01*
G04 TopSilk*
%LPD*%
X2005521Y2063820D2*
D10*
X1981881D1*
X1993701Y2052001D2*
Y2075614D1*
X1893701Y2193730D2*
G02X1893701Y2193730I100000J0D01*
G01*
X1992047Y1548425D2*
Y1638976D1*
X2192992D1*
X2025431Y1548425D2*
Y1638976D1*
X2192992Y1548425D2*
Y1638976D1*
X1992047Y1548425D2*
X2192992D1*
X1745354Y1338976D2*
Y1248425D1*
X1544409D1*
X1711970Y1338976D2*
Y1248425D1*
X1544409Y1338976D2*
Y1248425D1*
X1745354Y1338976D2*
X1544409D1*
X1193701Y2343701D2*
Y993701D1*
X393701D1*
Y2343701D1*
X1193701D1*
X810535Y382265D2*
X424803D1*
Y705119D1*
X842126D1*
Y382265D1*
G36*
X727905Y409150D2*
X759580D1*
Y377648D1*
X727905D1*
Y409150D1*
G37*
G36*
X531137D2*
X562770D1*
Y377648D1*
X531137D1*
Y409150D1*
G37*
X802689Y382265D2*
D10*
X842126D1*
X2260535D2*
X1874803D1*
Y705119D1*
X2292126D1*
Y382265D1*
G36*
X2177905Y409150D2*
X2209580D1*
Y377648D1*
X2177905D1*
Y409150D1*
G37*
G36*
X1981137D2*
X2012770D1*
Y377648D1*
X1981137D1*
Y409150D1*
G37*
X2252689Y382265D2*
D10*
X2292126D1*
X1840551Y1237008D2*
X1435039D1*
Y437795D1*
X1840551D1*
Y1237008D1*
X1685037Y637758D2*
Y737740D1*
X1684997Y637838D2*
X1735078Y587807D1*
X1585038Y737820D2*
X1685037D1*
X1660017Y1212792D2*
X1610058D1*
Y1112730D1*
X1660017D1*
Y1212792D1*
X1435039Y987813D2*
Y837881D1*
X2290551Y1537008D2*
X1885039D1*
Y737795D1*
X2290551D1*
Y1537008D1*
X2085038Y937758D2*
Y1037740D1*
X2084997Y937758D2*
X2135078Y887807D1*
X1985039Y1037820D2*
X2085038D1*
X2110017Y1512792D2*
X2060058D1*
Y1412730D1*
X2110017D1*
Y1512792D1*
X1885039Y1287813D2*
Y1137881D1*
X2068080Y1640558D2*
G02X2219321Y1640558I75620J66569D01*
G01*
X2068080D1*
X1518080Y1340558D2*
G02X1669321Y1340558I75620J66569D01*
G01*
X1518080D1*
X1673851Y1563701D2*
Y1623701D1*
X1513551Y1563701D2*
X1673851D1*
X1513551D2*
Y1623701D1*
X1673851D1*
X1963701Y1763551D2*
X2023701D1*
X1963701Y1923851D2*
Y1763551D1*
Y1923851D2*
X2023701D1*
Y1763551D1*
X994031Y818701D2*
X593371D1*
Y968701D2*
Y818701D1*
X994031Y968701D2*
X593371D1*
X994031D2*
Y818701D1*
X1368701Y1394031D2*
Y993371D1*
X1218701D2*
X1368701D1*
X1218701Y1394031D2*
Y993371D1*
Y1394031D2*
X1368701D1*
X1846843Y2118080D2*
G02X1846843Y2269321I-66569J75620D01*
G01*
Y2118080D1*
X988114Y596457D2*
X1264537D1*
X1027589Y761811D2*
X1304012D1*
X1331688Y604328D2*
G03X1304012Y761811I-30360J75838D01*
G01*
X960438Y753940D2*
G03X988114Y596457I30360J-75838D01*
G01*
X1243683Y2343706D2*
X1643718D1*
Y2243701D1*
X1243683D1*
Y2343706D1*
X1885981Y2304980D2*
D74*
X1883605Y2309733D1*
X1878796Y2314541D1*
X1874043Y2316918D1*
X1864481D1*
X1859673Y2314541D1*
X1854920Y2309733D1*
X1852488Y2304980D1*
X1850111Y2297795D1*
Y2285801D1*
X1852488Y2278671D1*
X1854920Y2273863D1*
X1859673Y2269110D1*
X1864481Y2266678D1*
X1874043D1*
X1878796Y2269110D1*
X1883605Y2273863D1*
X1885981Y2278671D1*
X1925352Y2266678D2*
Y2316863D1*
X1901420Y2283425D1*
X1937290D1*
X2062057Y1612199D2*
Y1561959D1*
X2078803D1*
X2085988Y1564391D1*
X2090797Y1569144D1*
X2093173Y1573953D1*
X2095550Y1581083D1*
Y1593076D1*
X2093173Y1600261D1*
X2090797Y1605014D1*
X2085988Y1609823D1*
X2078803Y1612199D1*
X2062057D1*
X2110989Y1602583D2*
X2115798Y1605014D1*
X2122983Y1612144D1*
Y1561959D1*
X1603669Y1312199D2*
Y1261959D1*
X1620416D1*
X1627601Y1264391D1*
X1632409Y1269144D1*
X1634786Y1273953D1*
X1637162Y1281083D1*
Y1293076D1*
X1634786Y1300261D1*
X1632409Y1305014D1*
X1627601Y1309823D1*
X1620416Y1312199D1*
X1603669D1*
X1655033Y1300206D2*
Y1302583D1*
X1657410Y1307391D1*
X1659787Y1309768D1*
X1664595Y1312144D1*
X1674157D1*
X1678910Y1309768D1*
X1681286Y1307391D1*
X1683718Y1302583D1*
Y1297829D1*
X1681286Y1293021D1*
X1676533Y1285891D1*
X1652602Y1261959D1*
X1686095D1*
X619397Y2266924D2*
Y2216684D1*
X652890Y2266924D2*
Y2216684D1*
X619397Y2242992D2*
X652890D1*
X668330Y2266924D2*
Y2216684D1*
X697014D1*
X712454Y2266924D2*
Y2216684D1*
X745947Y2266924D2*
X712454Y2233431D1*
X724392Y2245424D2*
X745947Y2216684D1*
X761386Y2241776D2*
X789021D1*
X804460Y2240616D2*
X826015D1*
X833145Y2242992D1*
X835577Y2245424D1*
X837954Y2250177D1*
Y2257362D1*
X835577Y2262115D1*
X833145Y2264547D1*
X826015Y2266924D1*
X804460D1*
Y2216684D1*
X891639D2*
Y2266924D1*
X872516Y2216684D1*
X853393Y2266924D1*
Y2216684D1*
X921449Y2266869D2*
X914264Y2264492D1*
X909455Y2257307D1*
X907079Y2245369D1*
Y2238184D1*
X909455Y2226245D1*
X914264Y2219060D1*
X921449Y2216684D1*
X926202D1*
X933387Y2219060D1*
X938140Y2226245D1*
X940572Y2238184D1*
Y2245369D1*
X938140Y2257307D1*
X933387Y2264492D1*
X926202Y2266869D1*
X921449D1*
X938140Y2257307D2*
X909455Y2226245D1*
X956011Y2257307D2*
X960820Y2259739D1*
X968005Y2266869D1*
Y2216684D1*
X620964Y678342D2*
Y640095D1*
X618588Y632910D1*
X616156Y630534D1*
X611402Y628102D1*
X606594D1*
X601841Y630534D1*
X599464Y632910D1*
X597032Y640095D1*
Y644849D1*
X638835Y666348D2*
Y668725D1*
X641212Y673533D1*
X643588Y675910D1*
X648397Y678287D1*
X657958D1*
X662712Y675910D1*
X665088Y673533D1*
X667520Y668725D1*
Y663972D1*
X665088Y659163D1*
X660335Y652034D1*
X636403Y628102D1*
X669897D1*
X2070964Y678342D2*
Y640095D1*
X2068588Y632910D1*
X2066156Y630534D1*
X2061402Y628102D1*
X2056594D1*
X2051841Y630534D1*
X2049464Y632910D1*
X2047032Y640095D1*
Y644849D1*
X2091212Y678287D2*
X2117465D1*
X2103150Y659163D1*
X2110335D1*
X2115088Y656787D1*
X2117465Y654410D1*
X2119897Y647225D1*
Y642472D1*
X2117465Y635287D1*
X2112712Y630478D1*
X2105527Y628102D1*
X2098342D1*
X2091212Y630478D1*
X2088835Y632910D1*
X2086403Y637663D1*
X1607332Y1060231D2*
Y1009991D1*
X1640826Y1060231D2*
X1607332Y1026738D1*
X1619270Y1038731D2*
X1640826Y1009991D1*
X1656265Y1050614D2*
X1661073Y1053046D1*
X1668258Y1060176D1*
Y1009991D1*
X2046582Y1360231D2*
Y1309991D1*
X2080076Y1360231D2*
X2046582Y1326738D1*
X2058521Y1338731D2*
X2080076Y1309991D1*
X2097947Y1348237D2*
Y1350614D1*
X2100323Y1355423D1*
X2102700Y1357799D1*
X2107508Y1360176D1*
X2117070D1*
X2121823Y1357799D1*
X2124200Y1355423D1*
X2126632Y1350614D1*
Y1345861D1*
X2124200Y1341052D1*
X2119447Y1333923D1*
X2095515Y1309991D1*
X2129008D1*
X2264454Y1731098D2*
X2259701Y1728776D1*
X2254892Y1723968D1*
X2252515Y1719160D1*
X2250084Y1711974D1*
Y1700036D1*
X2252515Y1692851D1*
X2254892Y1688098D1*
X2259701Y1683290D1*
X2264454Y1680913D1*
X2274015D1*
X2278824Y1683290D1*
X2283577Y1688098D1*
X2285954Y1692851D1*
X2288385Y1700036D1*
Y1711974D1*
X2285954Y1719160D1*
X2283577Y1723968D1*
X2278824Y1728776D1*
X2274015Y1731098D1*
X2264454D1*
X2271639Y1690475D2*
X2285954Y1676105D1*
X2308633Y1731042D2*
X2334886D1*
X2320571Y1711919D1*
X2327756D1*
X2332510Y1709543D1*
X2334886Y1707166D1*
X2337318Y1699981D1*
Y1695228D1*
X2334886Y1688043D1*
X2330133Y1683234D1*
X2322948Y1680858D1*
X2315763D1*
X2308633Y1683234D1*
X2306256Y1685666D1*
X2303825Y1690419D1*
X1713265Y1431098D2*
X1708512Y1428776D1*
X1703704Y1423968D1*
X1701327Y1419160D1*
X1698895Y1411974D1*
Y1400036D1*
X1701327Y1392851D1*
X1703704Y1388098D1*
X1708512Y1383290D1*
X1713265Y1380913D1*
X1722827D1*
X1727635Y1383290D1*
X1732389Y1388098D1*
X1734765Y1392851D1*
X1737197Y1400036D1*
Y1411974D1*
X1734765Y1419160D1*
X1732389Y1423968D1*
X1727635Y1428776D1*
X1722827Y1431098D1*
X1713265D1*
X1720450Y1390475D2*
X1734765Y1376105D1*
X1776568Y1380858D2*
Y1431042D1*
X1752636Y1397604D1*
X1788506D1*
X1563238Y1672992D2*
X1584738D1*
X1591923Y1675424D1*
X1594354Y1677801D1*
X1596731Y1682554D1*
Y1687362D1*
X1594354Y1692115D1*
X1591923Y1694547D1*
X1584738Y1696924D1*
X1563238D1*
Y1646684D1*
X1579984Y1672992D2*
X1596731Y1646684D1*
X1612170Y1687307D2*
X1616979Y1689739D1*
X1624164Y1696869D1*
Y1646684D1*
X1914409Y1802488D2*
Y1823988D1*
X1911978Y1831173D1*
X1909601Y1833605D1*
X1904848Y1835981D1*
X1900039D1*
X1895286Y1833605D1*
X1892854Y1831173D1*
X1890478Y1823988D1*
Y1802488D1*
X1940718D1*
X1914409Y1819235D2*
X1940718Y1835981D1*
X1902471Y1853852D2*
X1900095D1*
X1895286Y1856229D1*
X1892910Y1858606D1*
X1890533Y1863414D1*
Y1872976D1*
X1892910Y1877729D1*
X1895286Y1880105D1*
X1900095Y1882537D1*
X1904848D1*
X1909656Y1880105D1*
X1916786Y1875352D1*
X1940718Y1851420D1*
Y1884914D1*
X698894Y884739D2*
X694140Y889547D1*
X686955Y891924D1*
X677394D1*
X670209Y889547D1*
X665400Y884739D1*
Y879986D1*
X667832Y875177D1*
X670209Y872801D1*
X674962Y870424D1*
X689332Y865616D1*
X694140Y863239D1*
X696517Y860807D1*
X698894Y856054D1*
Y848869D1*
X694140Y844116D1*
X686955Y841684D1*
X677394D1*
X670209Y844116D1*
X665400Y848869D1*
X714333Y891924D2*
Y841684D1*
X735888D1*
X743073Y844116D1*
X745450Y846492D1*
X747826Y851245D1*
Y858431D1*
X745450Y863239D1*
X743073Y865616D1*
X735888Y867992D1*
X743073Y870424D1*
X745450Y872801D1*
X747826Y877554D1*
Y882362D1*
X745450Y887115D1*
X743073Y889547D1*
X735888Y891924D1*
X714333D1*
Y867992D2*
X735888D1*
X794382Y891924D2*
X763265D1*
Y841684D1*
Y867992D2*
X782389D1*
X809821Y875177D2*
Y851245D1*
X812198Y844116D1*
X817006Y841684D1*
X824191D1*
X828945Y844116D1*
X836130Y851245D1*
Y875177D2*
Y841684D1*
X877877Y867992D2*
X875501Y872801D1*
X868316Y875177D1*
X861131D1*
X853946Y872801D1*
X851569Y867992D1*
X853946Y863239D1*
X858754Y860807D1*
X870692Y858431D1*
X875501Y856054D1*
X877877Y851245D1*
Y848869D1*
X875501Y844116D1*
X868316Y841684D1*
X861131D1*
X853946Y844116D1*
X851569Y848869D1*
X893316Y860807D2*
X922001D1*
Y865616D1*
X919625Y870424D1*
X917248Y872801D1*
X912440Y875177D1*
X905255D1*
X900502Y872801D1*
X895693Y867992D1*
X893316Y860807D1*
Y856054D1*
X895693Y848869D1*
X900502Y844116D1*
X905255Y841684D1*
X912440D1*
X917248Y844116D1*
X922001Y848869D1*
X1245478Y1028406D2*
X1295718D1*
X1245478Y1011659D2*
Y1045153D1*
X1276595Y1060592D2*
Y1089277D1*
X1271786D1*
X1266978Y1086900D1*
X1264601Y1084524D1*
X1262224Y1079715D1*
Y1072530D1*
X1264601Y1067777D1*
X1269409Y1062968D1*
X1276595Y1060592D1*
X1281348D1*
X1288533Y1062968D1*
X1293286Y1067777D1*
X1295718Y1072530D1*
Y1079715D1*
X1293286Y1084523D1*
X1288533Y1089277D1*
X1262224Y1104716D2*
X1295718D1*
X1271786D2*
X1264601Y1111901D1*
X1262224Y1116709D1*
Y1123839D1*
X1264601Y1128648D1*
X1271786Y1131024D1*
X1295718D1*
X1271786D2*
X1264601Y1138209D1*
X1262224Y1143018D1*
Y1150147D1*
X1264601Y1154956D1*
X1271786Y1157388D1*
X1295718D1*
X1262224Y1172827D2*
X1312464D1*
X1269409D2*
X1264656Y1177635D1*
X1262224Y1182389D1*
Y1189574D1*
X1264656Y1194382D1*
X1269409Y1199135D1*
X1276594Y1201567D1*
X1281403D1*
X1288533Y1199135D1*
X1293341Y1194382D1*
X1295718Y1189574D1*
Y1182389D1*
X1293341Y1177635D1*
X1288533Y1172827D1*
X1245478Y1248123D2*
Y1217006D1*
X1295718D1*
X1269409D2*
Y1236130D1*
X1262224Y1263562D2*
X1286156D1*
X1293286Y1265939D1*
X1295718Y1270747D1*
Y1277932D1*
X1293286Y1282686D1*
X1286156Y1289871D1*
X1262224D2*
X1295718D1*
X1269409Y1331618D2*
X1264601Y1329242D1*
X1262224Y1322057D1*
Y1314872D1*
X1264601Y1307687D1*
X1269409Y1305310D1*
X1274163Y1307687D1*
X1276594Y1312495D1*
X1278971Y1324433D1*
X1281348Y1329242D1*
X1286156Y1331618D1*
X1288533D1*
X1293286Y1329242D1*
X1295718Y1322057D1*
Y1314872D1*
X1293286Y1307687D1*
X1288533Y1305310D1*
X1276594Y1347058D2*
Y1375742D1*
X1271786D1*
X1266978Y1373366D1*
X1264601Y1370989D1*
X1262224Y1366181D1*
Y1358996D1*
X1264601Y1354243D1*
X1269409Y1349434D1*
X1276594Y1347058D1*
X1281348D1*
X1288533Y1349434D1*
X1293286Y1354243D1*
X1295718Y1358996D1*
Y1366181D1*
X1293286Y1370989D1*
X1288533Y1375742D1*
X1671972Y2317671D2*
Y2281801D1*
X1674349Y2274616D1*
X1679157Y2269863D1*
X1686342Y2267431D1*
X1691095D1*
X1698280Y2269863D1*
X1703089Y2274616D1*
X1705465Y2281801D1*
Y2317671D1*
X1725713Y2317615D2*
X1751966D1*
X1737651Y2298492D1*
X1744836D1*
X1749590Y2296116D1*
X1751966Y2293739D1*
X1754398Y2286554D1*
Y2281801D1*
X1751966Y2274616D1*
X1747213Y2269807D1*
X1740028Y2267431D1*
X1732843D1*
X1725713Y2269807D1*
X1723337Y2272239D1*
X1720905Y2276992D1*
X998703Y835034D2*
X1017826Y784794D1*
X1036950Y835034D1*
X1081074Y818287D2*
Y784794D1*
Y811102D2*
X1076320Y815911D1*
X1071512Y818287D1*
X1064382D1*
X1059574Y815911D1*
X1054821Y811102D1*
X1052389Y803917D1*
Y799164D1*
X1054821Y791979D1*
X1059574Y787226D1*
X1064382Y784794D1*
X1071512D1*
X1076320Y787226D1*
X1081074Y791979D1*
X1096513Y818287D2*
Y784794D1*
Y803917D2*
X1098945Y811102D1*
X1103698Y815911D1*
X1108506Y818287D1*
X1115691D1*
X1131131Y835034D2*
X1133507Y832658D1*
X1135939Y835034D1*
X1133507Y837466D1*
X1131131Y835034D1*
X1133507Y818287D2*
Y784794D1*
X1177687Y811102D2*
X1175310Y815911D1*
X1168125Y818287D1*
X1160940D1*
X1153755Y815911D1*
X1151378Y811102D1*
X1153755Y806349D1*
X1158563Y803917D1*
X1170502Y801541D1*
X1175310Y799164D1*
X1177687Y794356D1*
Y791979D1*
X1175310Y787226D1*
X1168125Y784794D1*
X1160940D1*
X1153755Y787226D1*
X1151378Y791979D1*
X1200311Y835034D2*
Y794356D1*
X1202688Y787226D1*
X1207496Y784794D1*
X1212249D1*
X1193126Y818287D2*
X1209873D1*
X1239627D2*
X1234873Y815911D1*
X1230065Y811102D1*
X1227688Y803917D1*
Y799164D1*
X1230065Y791979D1*
X1234873Y787226D1*
X1239627Y784794D1*
X1246812D1*
X1251620Y787226D1*
X1256373Y791979D1*
X1258805Y799164D1*
Y803917D1*
X1256373Y811102D1*
X1251620Y815911D1*
X1246812Y818287D1*
X1239627D1*
X1274244D2*
Y784794D1*
Y803917D2*
X1276676Y811102D1*
X1281429Y815911D1*
X1286238Y818287D1*
X1293423D1*
X478143Y726502D2*
X458965Y776742D1*
X439841Y726502D1*
X447026Y743249D2*
X470958D1*
X529452Y764804D2*
X527076Y769557D1*
X522267Y774366D1*
X517514Y776742D1*
X507953D1*
X503144Y774366D1*
X498391Y769557D1*
X495959Y764804D1*
X493582Y757619D1*
Y745625D1*
X495959Y738496D1*
X498391Y733687D1*
X503144Y728934D1*
X507953Y726502D1*
X517514D1*
X522267Y728934D1*
X527076Y733687D1*
X529452Y738496D1*
X595924Y764749D2*
Y767125D1*
X598301Y771934D1*
X600678Y774310D1*
X605486Y776687D1*
X615048D1*
X619801Y774310D1*
X622178Y771934D1*
X624609Y767125D1*
Y762372D1*
X622178Y757564D1*
X617424Y750434D1*
X593493Y726502D1*
X626986D1*
X644857Y764749D2*
Y767125D1*
X647234Y771934D1*
X649610Y774310D1*
X654419Y776687D1*
X663980D1*
X668733Y774310D1*
X671110Y771934D1*
X673542Y767125D1*
Y762372D1*
X671110Y757564D1*
X666357Y750434D1*
X642425Y726502D1*
X675919D1*
X705728Y776687D2*
X698543Y774310D1*
X693734Y767125D1*
X691358Y755187D1*
Y748002D1*
X693734Y736064D1*
X698543Y728879D1*
X705728Y726502D1*
X710481D1*
X717666Y728879D1*
X722419Y736064D1*
X724851Y748002D1*
Y755187D1*
X722419Y767125D1*
X717666Y774310D1*
X710481Y776687D1*
X705728D1*
X722419Y767125D2*
X693734Y736064D1*
X788891Y776742D2*
Y726502D1*
X837824Y776742D2*
Y726502D1*
X804331Y776742D1*
Y726502D1*
X1238298Y2191245D2*
D75*
Y2161101D1*
X1248346D1*
X1252657Y2162560D1*
X1255542Y2165412D1*
X1256968Y2168297D1*
X1258394Y2172575D1*
Y2179771D1*
X1256968Y2184082D1*
X1255542Y2186934D1*
X1252657Y2189819D1*
X1248346Y2191245D1*
X1238298D1*
X1269116Y2184049D2*
Y2185475D1*
X1270542Y2188360D1*
X1271968Y2189786D1*
X1274853Y2191212D1*
X1280590D1*
X1283442Y2189786D1*
X1284868Y2188360D1*
X1286327Y2185475D1*
Y2182623D1*
X1284868Y2179738D1*
X1282016Y2175460D1*
X1267657Y2161101D1*
X1287753D1*
X1338298Y2191245D2*
Y2161101D1*
X1348346D1*
X1352657Y2162560D1*
X1355542Y2165412D1*
X1356968Y2168297D1*
X1358394Y2172575D1*
Y2179771D1*
X1356968Y2184082D1*
X1355542Y2186934D1*
X1352657Y2189819D1*
X1348346Y2191245D1*
X1338298D1*
X1370542Y2191212D2*
X1386294D1*
X1377705Y2179738D1*
X1382016D1*
X1384868Y2178312D1*
X1386294Y2176886D1*
X1387753Y2172575D1*
Y2169723D1*
X1386294Y2165412D1*
X1383442Y2162527D1*
X1379131Y2161101D1*
X1374820D1*
X1370542Y2162527D1*
X1369116Y2163986D1*
X1367657Y2166838D1*
X1438298Y2191245D2*
Y2161101D1*
X1448346D1*
X1452657Y2162560D1*
X1455542Y2165412D1*
X1456968Y2168297D1*
X1458394Y2172575D1*
Y2179771D1*
X1456968Y2184082D1*
X1455542Y2186934D1*
X1452657Y2189819D1*
X1448346Y2191245D1*
X1438298D1*
X1482016Y2161101D2*
Y2191212D1*
X1467657Y2171149D1*
X1489179D1*
X1559819Y2184082D2*
X1558394Y2186934D1*
X1555508Y2189819D1*
X1552657Y2191245D1*
X1546920D1*
X1544034Y2189819D1*
X1541183Y2186934D1*
X1539723Y2184082D1*
X1538298Y2179771D1*
Y2172575D1*
X1539723Y2168297D1*
X1541183Y2165412D1*
X1544034Y2162560D1*
X1546920Y2161101D1*
X1552657D1*
X1555508Y2162560D1*
X1558394Y2165412D1*
X1559819Y2168297D1*
Y2172575D1*
X1552657D1*
X1589179Y2191245D2*
Y2161101D1*
X1569083Y2191245D1*
Y2161101D1*
X1598443Y2191245D2*
Y2161101D1*
X1608491D1*
X1612802Y2162560D1*
X1615687Y2165412D1*
X1617113Y2168297D1*
X1618539Y2172575D1*
Y2179771D1*
X1617113Y2184082D1*
X1615687Y2186934D1*
X1612802Y2189819D1*
X1608491Y2191245D1*
X1598443D1*
M02*
