G04 DipTrace 3.0.0.1*
G04 BottomMask.gbr*
%MOIN*%
G04 #@! TF.FileFunction,Soldermask,Bot*
G04 #@! TF.Part,Single*
%AMOUTLINE1*
4,1,8,
-0.023622,-0.031158,
-0.011473,-0.043307,
0.011473,-0.043307,
0.023622,-0.031158,
0.023622,0.031158,
0.011473,0.043307,
-0.011473,0.043307,
-0.023622,0.031158,
-0.023622,-0.031158,
0*%
%AMOUTLINE4*
4,1,8,
0.031158,-0.023622,
0.043307,-0.011473,
0.043307,0.011473,
0.031158,0.023622,
-0.031158,0.023622,
-0.043307,0.011473,
-0.043307,-0.011473,
-0.031158,-0.023622,
0.031158,-0.023622,
0*%
%ADD25C,0.07874*%
%ADD32C,0.074803*%
%ADD33R,0.066929X0.066929*%
%ADD34C,0.066929*%
%ADD49R,0.074803X0.074803*%
%ADD50C,0.082677*%
%ADD51O,0.086614X0.047244*%
%ADD53C,0.077874*%
%ADD55C,0.077874*%
%ADD57C,0.057874*%
%ADD59C,0.057874*%
%ADD61O,0.047244X0.086614*%
%ADD63C,0.086614*%
%ADD65R,0.098425X0.098425*%
%ADD67C,0.098425*%
%ADD70C,0.070866*%
%ADD72R,0.070866X0.070866*%
%ADD79OUTLINE1*%
%ADD82OUTLINE4*%
%FSLAX26Y26*%
G04*
G70*
G90*
G75*
G01*
G04 BotMask*
%LPD*%
D72*
X943701Y1593701D3*
D70*
X1043701D3*
X1093701Y1893701D3*
D72*
X993701D3*
X1993701Y2143701D3*
D70*
Y2243701D3*
X1293701Y1893701D3*
D72*
X1393701D3*
D33*
X1893701Y1593701D3*
D34*
X2291339D3*
D33*
X1843701Y1293701D3*
D34*
X1446063D3*
D33*
X1093701Y2243701D3*
D34*
X693701Y1093701D3*
X893701D3*
X493701Y2243701D3*
D67*
X743701Y543701D3*
D65*
X546850D3*
D67*
X2193701D3*
D65*
X1996850D3*
D25*
X1793701Y1193701D3*
X1481890D3*
D63*
Y790551D3*
Y490551D3*
D25*
X2243701Y1493701D3*
X1931890D3*
D63*
Y1090551D3*
Y790551D3*
X2243701Y890551D3*
D79*
X2093701Y1693701D3*
D61*
X2143701D3*
X2193701D3*
D79*
X1543701Y1393701D3*
D61*
X1593701D3*
X1643701D3*
D59*
X1743701Y1593701D3*
D57*
X1443701D3*
D59*
X1993701Y1693701D3*
D57*
Y1993701D3*
D59*
X543701Y1893701D3*
D57*
X843701D3*
D33*
X2293701Y2243701D3*
D34*
X2193701D3*
X2293701Y2143701D3*
X2193701D3*
X2293701Y2043701D3*
X2193701D3*
X2293701Y1943701D3*
X2193701D3*
D55*
X493701Y893701D3*
D53*
X1093701D3*
D55*
X1293701D3*
D53*
Y1493701D3*
D72*
X543701Y2043701D3*
D70*
X643701D3*
X743701D3*
X843701D3*
X943701D3*
X1043701D3*
X1143701D3*
X1243701D3*
X1343701D3*
X1443701D3*
X1543701D3*
X1643701D3*
X1743701D3*
X1843701D3*
Y1743701D3*
X1743701D3*
X1643701D3*
X1543701D3*
X1443701D3*
X1343701D3*
X1243701D3*
X1143701D3*
X1043701D3*
X943701D3*
X843701D3*
X743701D3*
X643701D3*
X543701D3*
D82*
X1793701Y2143701D3*
D51*
Y2193701D3*
Y2243701D3*
D50*
X1293701Y643701D3*
X998425Y714567D3*
D49*
X1293701Y2293701D3*
D32*
X1393701D3*
X1493701D3*
X1593701D3*
M02*
