G04 DipTrace 3.0.0.1*
G04 Top.gbr*
%MOIN*%
G04 #@! TF.FileFunction,Copper,L1,Top*
G04 #@! TF.Part,Single*
%AMOUTLINE0*
4,1,8,
-0.019685,-0.029528,
-0.009843,-0.03937,
0.009843,-0.03937,
0.019685,-0.029528,
0.019685,0.029528,
0.009843,0.03937,
-0.009843,0.03937,
-0.019685,0.029528,
-0.019685,-0.029528,
0*%
%AMOUTLINE3*
4,1,8,
0.029528,-0.019685,
0.03937,-0.009843,
0.03937,0.009843,
0.029528,0.019685,
-0.029528,0.019685,
-0.03937,0.009843,
-0.03937,-0.009843,
-0.029528,-0.019685,
0.029528,-0.019685,
0*%
G04 #@! TA.AperFunction,Conductor*
%ADD13C,0.019685*%
%ADD16C,0.012992*%
G04 #@! TA.AperFunction,ComponentPad*
%ADD18R,0.062992X0.062992*%
%ADD19C,0.062992*%
%ADD20R,0.059055X0.059055*%
%ADD21C,0.059055*%
%ADD22C,0.090551*%
%ADD23R,0.090551X0.090551*%
%ADD24C,0.070866*%
%ADD25C,0.07874*%
%ADD26O,0.03937X0.07874*%
%ADD27C,0.05*%
%ADD28C,0.05*%
%ADD29C,0.07*%
%ADD30C,0.07*%
%ADD31O,0.07874X0.03937*%
%ADD32C,0.074803*%
%ADD33R,0.066929X0.066929*%
%ADD34C,0.066929*%
G04 #@! TA.AperFunction,ViaPad*
%ADD35C,0.04*%
G04 #@! TA.AperFunction,ComponentPad*
%ADD78OUTLINE0*%
%ADD81OUTLINE3*%
%FSLAX26Y26*%
G04*
G70*
G90*
G75*
G01*
G04 Top*
%LPD*%
X1243701Y2043701D2*
D13*
X1294685Y2094685D1*
X1520669D1*
X1619685Y2193701D1*
X1793701D1*
X1619685D2*
X1593701Y2219685D1*
Y2293701D1*
X1993701Y2243701D2*
X2044685Y2294685D1*
X2242717D1*
X2293701Y2243701D1*
X1793701Y2193701D2*
X1891732D1*
X1941732Y2243701D1*
X1993701D1*
X1043701Y1593701D2*
X1343701D1*
X1389213Y1548189D1*
X1517717D1*
X1543701Y1522205D1*
Y1393701D1*
X1446063Y1293701D2*
X1617717D1*
X1643701Y1319685D1*
Y1393701D1*
X1243701Y1743701D2*
D16*
X1294685Y1794685D1*
X1367717D1*
X1393701Y1820669D1*
Y1893701D1*
X1543701Y2043701D2*
X1642717Y1944685D1*
X1944685D1*
X1993701Y1993701D1*
X2084173Y2083189D2*
X1900433D1*
X1888937Y2094685D1*
X1694685D1*
X1643701Y2043701D1*
X843701D2*
Y2267717D1*
X869685Y2293701D1*
X1293701D1*
X943701Y2043701D2*
X1046654Y2146654D1*
X1246654D1*
X1393701Y2293701D1*
X1043701Y2043701D2*
X1120669Y2120669D1*
X1320669D1*
X1493701Y2293701D1*
X2242717Y1794685D2*
X1894685D1*
X1843701Y1743701D1*
X2123661Y2043701D2*
X1979606Y1899646D1*
X1643701D1*
X2293701Y1943701D2*
Y1860157D1*
X2267717Y1834173D1*
X1634173D1*
X1543701Y1743701D1*
X1443701D2*
X1560157Y1860157D1*
X2216732D1*
X2242717Y1886142D1*
Y1992717D1*
X2293701Y2043701D1*
X1793701Y2143701D2*
X1894685D1*
X1993701D1*
X2093701D1*
X2193701Y2243701D1*
X1893701Y1593701D2*
D13*
X1842717Y1644685D1*
X1442717D1*
X1343701Y1743701D1*
X993701Y1893701D2*
X1070669Y1970669D1*
X1143697D1*
X1216732D1*
X1293701Y1893701D1*
X1143697Y1970669D2*
X1143701Y2043701D1*
X1343701Y1743701D2*
X1244685Y1644685D1*
X994685D1*
X943701Y1593701D1*
X1893701D2*
Y1531890D1*
X1931890Y1493701D1*
Y1381890D1*
X1843701Y1293701D1*
Y1243701D1*
X1793701Y1193701D1*
D35*
X2084173Y2083189D3*
X2242717Y1794685D3*
X1643701Y1899646D3*
X2123661Y2043701D3*
D18*
X943701Y1593701D3*
D19*
X1043701D3*
X1093701Y1893701D3*
D18*
X993701D3*
X1993701Y2143701D3*
D19*
Y2243701D3*
X1293701Y1893701D3*
D18*
X1393701D3*
D20*
X1893701Y1593701D3*
D21*
X2291339D3*
D20*
X1843701Y1293701D3*
D21*
X1446063D3*
D20*
X1093701Y2243701D3*
D21*
X693701Y1093701D3*
X893701D3*
X493701Y2243701D3*
D22*
X743701Y543701D3*
D23*
X546850D3*
D22*
X2193701D3*
D23*
X1996850D3*
D24*
X1793701Y1193701D3*
X1481890D3*
D25*
Y790551D3*
Y490551D3*
D24*
X2243701Y1493701D3*
X1931890D3*
D25*
Y1090551D3*
Y790551D3*
X2243701Y890551D3*
D78*
X2093701Y1693701D3*
D26*
X2143701D3*
X2193701D3*
D78*
X1543701Y1393701D3*
D26*
X1593701D3*
X1643701D3*
D27*
X1743701Y1593701D3*
D28*
X1443701D3*
D27*
X1993701Y1693701D3*
D28*
Y1993701D3*
D27*
X543701Y1893701D3*
D28*
X843701D3*
D20*
X2293701Y2243701D3*
D21*
X2193701D3*
X2293701Y2143701D3*
X2193701D3*
X2293701Y2043701D3*
X2193701D3*
X2293701Y1943701D3*
X2193701D3*
D29*
X493701Y893701D3*
D30*
X1093701D3*
D29*
X1293701D3*
D30*
Y1493701D3*
D18*
X543701Y2043701D3*
D19*
X643701D3*
X743701D3*
X843701D3*
X943701D3*
X1043701D3*
X1143701D3*
X1243701D3*
X1343701D3*
X1443701D3*
X1543701D3*
X1643701D3*
X1743701D3*
X1843701D3*
Y1743701D3*
X1743701D3*
X1643701D3*
X1543701D3*
X1443701D3*
X1343701D3*
X1243701D3*
X1143701D3*
X1043701D3*
X943701D3*
X843701D3*
X743701D3*
X643701D3*
X543701D3*
D81*
X1793701Y2143701D3*
D31*
Y2193701D3*
Y2243701D3*
D32*
X1293701Y643701D3*
X998425Y714567D3*
D33*
X1293701Y2293701D3*
D34*
X1393701D3*
X1493701D3*
X1593701D3*
M02*
